<?xml version="1.0" encoding="UTF-8"?>
<svg width="49px" height="71px" viewBox="0 0 49 71" version="1.1" xmlns="http://www.w3.org/2000/svg" xmlns:xlink="http://www.w3.org/1999/xlink">
    <!-- Generator: Sketch 63.1 (92452) - https://sketch.com -->
    <title>Figma</title>
    <desc>Created with Sketch.</desc>
    <g id="Desktop" stroke="none" stroke-width="1" fill="none" fill-rule="evenodd">
        <g id="Home" transform="translate(-626.000000, -3453.000000)" fill-rule="nonzero">
            <g id="Figma" transform="translate(626.000000, 3453.000000)">
                <path d="M12.6666667,71 C19.2940837,71 24.6666667,65.627417 24.6666667,59 L24.6666667,47 L12.6666667,47 C6.03924967,47 0.666666667,52.372583 0.666666667,59 C0.666666667,65.627417 6.03924967,71 12.6666667,71 L12.6666667,71 Z" id="Path" fill="#0ACF83"></path>
                <path d="M0.666666667,36 C0.666666667,29.372583 6.03924967,24 12.6666667,24 L24.6666667,24 L24.6666667,48 L12.6666667,48 C6.03924967,48 0.666666667,42.627417 0.666666667,36 Z" id="Path" fill="#A259FF"></path>
                <path d="M0.666666667,12 C0.666666667,5.37624244 6.03563338,0.00517481059 12.6619773,0 L24.6666667,0 L24.6666667,24 L12.671356,24 C6.04134915,24 0.666666667,18.627417 0.666666667,12 Z" id="Path" fill="#F24E1E"></path>
                <path d="M24.6666667,0 L36.6666667,0 C43.2940837,0 48.6666667,5.372583 48.6666667,12 C48.6666667,18.627417 43.2940837,24 36.6666667,24 L24.6666667,24 L24.6666667,0 Z" id="Path" fill="#FF7262"></path>
                <path d="M48.6666667,36 C48.6666667,42.6274171 43.2940836,48 36.6666667,48 C30.0392498,48 24.6666667,42.6274171 24.6666667,36 C24.6666667,29.3725831 30.0392497,24 36.6666667,24 C43.2940837,24 48.6666667,29.3725831 48.6666667,36 L48.6666667,36 Z" id="Path" fill="#1ABCFE"></path>
            </g>
        </g>
    </g>
</svg>