<?xml version="1.0" encoding="UTF-8"?>
<svg width="63px" height="62px" viewBox="0 0 63 62" version="1.1" xmlns="http://www.w3.org/2000/svg" xmlns:xlink="http://www.w3.org/1999/xlink">
    <!-- Generator: Sketch 63.1 (92452) - https://sketch.com -->
    <title>invision</title>
    <desc>Created with Sketch.</desc>
    <g id="Desktop" stroke="none" stroke-width="1" fill="none" fill-rule="evenodd">
        <g id="Home" transform="translate(-907.000000, -3462.000000)" fill-rule="nonzero">
            <g id="invision" transform="translate(907.000000, 3462.000000)">
                <path d="M56.8795547,0 L6.12044531,0 C3.01632813,0 0.5,2.51632813 0.5,5.62044531 L0.5,56.3795547 C0.5,59.4836719 3.01632813,62 6.12044531,62 L56.8795547,62 C59.9836719,62 62.5,59.4836719 62.5,56.3795547 L62.5,5.62044531 C62.5,2.51632813 59.9836719,0 56.8795547,0" id="Path" fill="#DC395F"></path>
                <path d="M20.8894631,19.5217943 C22.9454089,19.5217943 24.6677164,17.8937848 24.6677164,15.7600428 C24.6677164,13.6277654 22.9454089,12 20.8894631,12 C18.8335174,12 17.111693,13.6277654 17.111693,15.7600428 C17.111693,17.8935407 18.8335174,19.5217943 20.8894631,19.5217943 M13.0556092,39.6632247 C12.8335864,40.6175751 12.7222126,41.6480782 12.7222126,42.4886876 C12.7222126,45.8010889 14.5000863,48 18.2783396,48 C21.4117845,48 23.9521217,46.1201006 25.7812128,43.0844854 L24.6643342,47.6128901 L30.8865295,47.6128901 L34.44276,33.2026876 C35.3318176,29.554189 37.0541252,27.6603771 39.6657319,27.6603771 C41.7214361,27.6603771 42.9992148,28.9520452 42.9992148,31.0843226 C42.9992148,31.7020876 42.9436487,32.3750144 42.7213843,33.1050558 L40.887703,39.728638 C40.6098725,40.6829883 40.4992235,41.6378269 40.4992235,42.5353068 C40.4992235,45.6797814 42.33218,47.9797414 46.1659994,47.9797414 C49.4441578,47.9797414 52.0552814,45.847708 53.5,40.7393707 L51.0555747,39.7859966 C49.8331205,43.2082336 48.7773646,43.8269748 47.9438731,43.8269748 C47.1103815,43.8269748 46.6658527,43.2660804 46.6658527,42.1440475 C46.6658527,41.6388032 46.7774681,41.0781529 46.9436832,40.4030293 L48.7220401,33.9500586 C49.1663273,32.4348139 49.3332672,31.0911569 49.3332672,29.8566034 C49.3332672,25.0292014 46.4438299,22.509814 42.9436487,22.509814 C39.6657319,22.509814 36.3317659,25.4971016 34.665266,28.6410881 L35.8872371,22.9979728 L26.3868833,22.9979728 L25.0532969,27.9684053 L29.4983434,27.9684053 L26.7611089,39.039846 C24.6116672,43.8672479 20.6633333,43.9455974 20.1678286,43.833565 C19.3541476,43.6480647 18.833759,43.3358871 18.833759,42.2677958 C18.833759,41.6514953 18.9448912,40.7662194 19.2227217,39.6988603 L23.3901793,22.9979728 L12.8335864,22.9979728 L11.5,27.9684053 L15.8889972,27.9684053 L13.0558508,39.6632247" id="Shape" fill="#FFFFFF"></path>
            </g>
        </g>
    </g>
</svg>