<?xml version="1.0" encoding="UTF-8"?>
<svg width="38px" height="38px" viewBox="0 0 38 38" version="1.1" xmlns="http://www.w3.org/2000/svg" xmlns:xlink="http://www.w3.org/1999/xlink">
    <!-- Generator: Sketch 63.1 (92452) - https://sketch.com -->
    <title>Linkedin</title>
    <desc>Created with Sketch.</desc>
    <g id="Desktop" stroke="none" stroke-width="1" fill="none" fill-rule="evenodd">
        <g id="Home" transform="translate(-670.000000, -3827.000000)" fill="#818181" fill-rule="nonzero">
            <g id="Footer" transform="translate(0.000000, 3763.000000)">
                <g id="Linkedin" transform="translate(670.000000, 64.000000)">
                    <path d="M30.0833333,0 L7.91666667,0 C3.54508333,0 0,3.54508333 0,7.91666667 L0,30.0833333 C0,34.4549167 3.54508333,38 7.91666667,38 L30.0833333,38 C34.4565,38 38,34.4549167 38,30.0833333 L38,7.91666667 C38,3.54508333 34.4565,0 30.0833333,0 Z M12.6666667,30.0833333 L7.91666667,30.0833333 L7.91666667,12.6666667 L12.6666667,12.6666667 L12.6666667,30.0833333 Z M10.2916667,10.659 C8.76216667,10.659 7.52083333,9.40816667 7.52083333,7.866 C7.52083333,6.32383333 8.76216667,5.073 10.2916667,5.073 C11.8211667,5.073 13.0625,6.32383333 13.0625,7.866 C13.0625,9.40816667 11.82275,10.659 10.2916667,10.659 Z M31.6666667,30.0833333 L26.9166667,30.0833333 L26.9166667,21.2103333 C26.9166667,15.8776667 20.5833333,16.2814167 20.5833333,21.2103333 L20.5833333,30.0833333 L15.8333333,30.0833333 L15.8333333,12.6666667 L20.5833333,12.6666667 L20.5833333,15.46125 C22.7936667,11.36675 31.6666667,11.0643333 31.6666667,19.3815833 L31.6666667,30.0833333 Z" id="Shape"></path>
                </g>
            </g>
        </g>
    </g>
</svg>