<?xml version="1.0" encoding="UTF-8"?>
<svg width="78px" height="53px" viewBox="0 0 78 53" version="1.1" xmlns="http://www.w3.org/2000/svg" xmlns:xlink="http://www.w3.org/1999/xlink">
    <!-- Generator: Sketch 63.1 (92452) - https://sketch.com -->
    <title>marvel</title>
    <desc>Created with Sketch.</desc>
    <g id="Desktop" stroke="none" stroke-width="1" fill="none" fill-rule="evenodd">
        <g id="Home" transform="translate(-1050.000000, -3467.000000)" fill="#1991EB" fill-rule="nonzero">
            <g id="marvel" transform="translate(1050.000000, 3467.000000)">
                <path d="M45.733167,16.5108941 L48.9422022,13.3194062 C49.8701123,12.3961842 50.7550108,11.585149 51.592085,10.8913863 C52.4291592,10.1973245 53.2662334,9.48232107 54.1036084,8.74069203 C55.9624366,7.16947957 57.4970225,6.05927975 58.7067647,5.41099007 C59.9137998,4.76479454 61.0778233,4.43990178 62.1940225,4.43990178 C63.7737256,4.43990178 65.1931123,5.01908444 66.4482725,6.17415895 C67.7037334,7.33162678 68.3311631,8.65034432 68.3311631,10.1285166 C68.3311631,11.2384172 68.0285772,12.3722511 67.4246084,13.5279239 C66.818835,14.6856909 65.7269991,16.2811357 64.1463936,18.3142583 C56.8930538,27.7490122 53.2662334,33.853765 53.2662334,36.6285166 C53.2662334,37.8317566 53.8702022,38.4324791 55.0793428,38.4324791 C56.0081553,38.4324791 57.0326163,38.039676 58.1488155,37.2525739 C59.2641123,36.4681644 60.7051553,35.1021788 62.4728467,33.1600023 C63.4010577,32.1431418 64.5413194,30.7553172 65.8900225,28.9977252 C67.2375225,27.2413299 68.4229014,25.6225502 69.4473623,24.1416855 C70.4700186,22.6629149 71.3305538,21.6439603 72.0280655,21.0896083 C72.7255772,20.5343588 73.5385889,20.2570332 74.4692061,20.2570332 C75.3980186,20.2570332 76.1890733,20.5819259 76.8402647,21.2275231 C77.490253,21.8758128 77.8169014,22.6629149 77.8169014,23.5867352 C77.8169014,25.3449255 77.002085,27.6799052 75.3757608,30.59317 C73.7479327,33.506734 71.6310342,36.4897042 69.0286748,39.5420806 C65.7727178,43.4267329 62.4487842,46.4339354 59.0553702,48.5600982 C55.6595498,50.6874577 52.5687217,51.7518853 49.7792764,51.7518853 C47.17421,51.7518853 45.0362569,50.8950779 43.3621084,49.1850531 C41.68796,47.4744299 40.8514873,45.2782626 40.8514873,42.5947562 C40.8514873,41.2069316 40.9669873,39.8891115 41.2000928,38.6403985 C41.4313936,37.3913863 41.7796983,36.0974994 42.2459092,34.7554471 C42.7103155,33.4154888 43.3621084,31.9809946 44.1991827,30.4543576 C45.0362569,28.9280199 46.1040303,27.2413299 47.4073155,25.3903985 C47.4990538,25.2061131 47.73246,24.8354482 48.105128,24.2804979 C45.6853428,26.1320275 43.292628,28.4661097 40.9209678,31.2872319 C38.5499092,34.1092515 36.1544873,37.7387164 33.7371084,42.178319 C31.9691163,45.1394502 30.6204131,47.103765 29.6916006,48.0748532 C28.7609834,49.0462407 27.599667,49.5314857 26.2046436,49.5314857 C24.7157764,49.5314857 23.484378,49.0007677 22.5077413,47.93634 C21.5311045,46.8737074 21.0432373,45.5555882 21.0432373,43.9816832 C21.0432373,42.9654211 21.1584366,41.9701005 21.391542,40.998713 C21.6228428,40.0279239 22.1116123,38.7098047 22.8569483,37.0449537 C23.3204522,35.7504685 23.9244209,34.3393091 24.6700577,32.8126722 C25.4132881,31.2872319 26.0650811,30.1073267 26.6230303,29.27535 L29.2732139,24.6966358 C29.4584952,24.5123504 29.7376202,24.0504403 30.1102881,23.3091104 C28.248753,24.7899752 26.4356436,26.4784601 24.6700577,28.3730695 C22.8985731,30.2740262 21.2002434,32.241152 19.5787334,34.2702021 C17.9503038,36.3054188 16.5098623,38.3627738 15.2544014,40.4440619 C13.9986397,42.5250508 12.9525225,44.5366336 12.1157491,46.4794084 C10.9995498,49.0695755 10.0012569,50.8020377 9.11635844,51.68218 C8.23416703,52.560228 7.09360453,53 5.6985811,53 C4.30415922,53 3.14224125,52.4450497 2.21132328,51.3354482 C1.28341313,50.2255475 0.816901408,48.7922499 0.816901408,47.0343588 C0.816901408,43.5203714 2.5382725,37.4610917 5.9777061,28.8589128 C7.93097953,23.9574001 10.0472764,19.424159 12.3244913,15.2621811 C14.6026084,11.099904 16.8584678,7.5401445 19.0899639,4.57841499 C20.3914444,2.91386317 21.5076436,1.73425717 22.4382608,1.0410928 C23.3664717,0.347030932 24.3909327,0 25.5071319,0 C26.7147686,0 27.7608858,0.416437119 28.6457842,1.24871303 C29.5285772,2.0812881 29.9707256,3.10024272 29.9707256,4.30108941 C29.9707256,5.22670467 29.7619834,6.19809212 29.3432959,7.21495259 C28.9249092,8.2339072 27.9239092,9.98970422 26.3439053,12.4868311 C25.9191022,13.199963 25.5005991,13.916789 25.0884444,14.6372262 C24.5304952,15.6086137 23.8329834,16.836086 22.9965108,18.3142583 L21.4616241,21.3663355 C24.2513702,18.0366336 26.6925108,15.2164089 28.7850459,12.9032682 C30.8772803,10.5922217 32.7126475,8.74069203 34.2950577,7.35376496 C35.8756631,5.96623956 37.2944483,4.94907993 38.5499092,4.30108941 C39.8047686,3.65549221 40.9426241,3.33030029 41.967085,3.33030029 C43.2685655,3.33030029 44.3847647,3.77007225 45.3153819,4.64812034 C46.2435928,5.52826259 46.7098038,6.61452924 46.7098038,7.90811696 C46.7098038,8.74069203 46.522417,9.66660646 46.1518545,10.6834669 C45.7791866,11.7024215 44.9878311,13.2739332 43.7807959,15.4006943 L40.8514873,20.6731711 L39.7355889,22.7541601 L41.408835,20.9507959 C43.0829834,19.1944005 44.5243272,17.7135358 45.733167,16.5108941 Z" id="Path"></path>
            </g>
        </g>
    </g>
</svg>