<?xml version="1.0" encoding="UTF-8"?>
<svg width="38px" height="38px" viewBox="0 0 38 38" version="1.1" xmlns="http://www.w3.org/2000/svg" xmlns:xlink="http://www.w3.org/1999/xlink">
    <!-- Generator: Sketch 63.1 (92452) - https://sketch.com -->
    <title>Medium</title>
    <desc>Created with Sketch.</desc>
    <g id="Desktop" stroke="none" stroke-width="1" fill="none" fill-rule="evenodd">
        <g id="Home" transform="translate(-214.000000, -457.000000)" fill="#000000">
            <g id="Medium" transform="translate(214.000000, 457.000000)">
                <path d="M30.0833333,38 L7.91666667,38 C3.54508333,38 0,34.4549167 0,30.0833333 L0,7.91666667 C0,3.54508333 3.54508333,0 7.91666667,0 L30.0833333,0 C34.4565,0 38,3.54508333 38,7.91666667 L38,30.0833333 C38,34.4549167 34.4580833,37.9984167 30.0833333,38 Z M31.6191667,29.05575 L31.6191667,28.6298333 L29.64475,26.6918333 C29.4705833,26.5588333 29.3835,26.3403333 29.4199167,26.1234167 L29.4199167,11.8765833 C29.3835,11.6596667 29.4705833,11.4411667 29.64475,11.3081667 L31.6666667,9.37016667 L31.6666667,8.94425 L24.6651667,8.94425 L19.6745,21.394 L13.9966667,8.94425 L6.65316667,8.94425 L6.65316667,9.37016667 L9.01866667,12.2185833 C9.24983333,12.4291667 9.36858333,12.7363333 9.33691667,13.0466667 L9.33691667,24.244 C9.40658333,24.64775 9.27833333,25.061 8.99491667,25.3555 L6.33333333,28.5823333 L6.33333333,29.00825 L13.8795,29.00825 L13.8795,28.5823333 L11.2179167,25.3555 C10.9313333,25.061 10.79675,24.6509167 10.8505833,24.244 L10.8505833,14.5603333 L17.4736667,29.00825 L18.2431667,29.00825 L23.9320833,14.5603333 L23.9320833,26.0759167 C23.9320833,26.3830833 23.9320833,26.44325 23.731,26.6443333 L21.6853333,28.6298333 L21.6853333,29.05575 L31.6191667,29.05575 L31.6191667,29.05575 Z" id="Shape"></path>
            </g>
        </g>
    </g>
</svg>